<?xml version="1.0"?>
<svg xmlns="http://www.w3.org/2000/svg" xmlns:xlink="http://www.w3.org/1999/xlink" version="1.1" viewBox="0 0 252 252" width="48px" height="48px"><g fill="none" fill-rule="nonzero" stroke="none" stroke-width="1" stroke-linecap="butt" stroke-linejoin="miter" stroke-miterlimit="10" stroke-dasharray="" stroke-dashoffset="0" font-family="none" font-weight="none" font-size="none" text-anchor="none" style="mix-blend-mode: normal"><path d="M0,252v-252h252v252z" fill="none"/><g id="Layer_1"><path d="M220.5,194.25c0,14.5005 -11.7495,26.25 -26.25,26.25h-136.5c-14.49525,0 -26.25,-11.7495 -26.25,-26.25v-136.5c0,-14.5005 11.75475,-26.25 26.25,-26.25h136.5c14.5005,0 26.25,11.7495 26.25,26.25z" fill="#ffffff"/><path d="M173.4075,134.4c-3.4125,-4.725 -8.3475,-7.98 -14.7,-9.7125c0,0 5.355,-1.9425 10.185,-9.1875c2.8875,-4.62 4.3575,-10.185 4.3575,-16.695c0,-11.2875 -4.095,-19.95 -12.285,-25.8825c-8.19,-5.9325 -17.43,-9.9225 -33.1275,-9.9225h-49.0875v126h54.7575c14.8575,-0.105 26.04,-3.3075 33.6525,-9.45c7.56,-6.2475 11.34,-15.4875 11.34,-27.825c0,-6.825 -1.68,-12.6 -5.0925,-17.325zM110.25,84c0,0 21.8925,0 22.3125,0c7.98,0 14.4375,6.4575 14.4375,14.4375c0,7.98 -6.4575,14.4375 -14.4375,14.4375c-0.42,0 -22.3125,0 -22.3125,0zM136.5,168h-26.25v-31.5h26.25c8.715,0 15.75,7.035 15.75,15.75c0,8.715 -7.035,15.75 -15.75,15.75z" fill="#49546a"/></g></g></svg>
