<?xml version="1.0"?>
<svg xmlns="http://www.w3.org/2000/svg" xmlns:xlink="http://www.w3.org/1999/xlink" version="1.1" viewBox="0 0 252 252" width="50px" height="50px"><g fill="none" fill-rule="nonzero" stroke="none" stroke-width="1" stroke-linecap="butt" stroke-linejoin="miter" stroke-miterlimit="10" stroke-dasharray="" stroke-dashoffset="0" font-family="none" font-weight="none" font-size="none" text-anchor="none" style="mix-blend-mode: normal"><path d="M0,252v-252h252v252z" fill="none"/><g><g id="surface1"><path d="M84,220.5h84c28.99805,0 52.5,-23.50195 52.5,-52.5v-84c0,-28.99804 -23.50195,-52.5 -52.5,-52.5h-84c-28.99804,0 -52.5,23.50196 -52.5,52.5v84c0,28.99805 23.50196,52.5 52.5,52.5z" fill="#ffffff"/><path d="M71.12109,98.35547c0,2.21484 -1.80469,3.99902 -4.01953,3.99902c-2.19434,0 -3.99902,-1.78418 -3.99902,-3.99902c0,-2.19434 1.80469,-3.99902 3.99902,-3.99902c2.21484,0 4.01953,1.80469 4.01953,3.99902z" fill="#ffc107"/><path d="M83.89746,114.49512l7.58789,-3.19922c3.56836,-6.39844 9.63867,-10.11035 17.49317,-10.11035c1.78418,0 3.46582,0.22558 5.04492,0.59473l7.21875,-3.03516c-3.56836,-1.76367 -7.62891,-2.76856 -12.26367,-2.76856c-12.55078,0 -21.49219,6.89063 -25.08106,18.51856z" fill="#ff5722"/><path d="M69.80859,120.46289v-8.24414h-5.37304v10.52051z" fill="#ff5722"/><path d="M69.80859,135.10547v-14.64258l-5.37304,2.27636v14.62207z" fill="#f44336"/><path d="M87.89649,126.7793c0,-6.13184 1.29199,-11.36133 3.58886,-15.4834l-7.58789,3.19922c-1.10742,3.6709 -1.74316,7.75195 -1.74316,12.28418c0,1.04589 0.14355,2.00976 0.20508,3.01464l5.57813,-2.35839c0,-0.22559 -0.04101,-0.43067 -0.04101,-0.65625z" fill="#f44336"/><path d="M159.71484,97.125c-1.47656,0.45117 -2.83008,1.02539 -4.06054,1.72266z" fill="#f44336"/><path d="M121.24219,98.74512l-7.21875,3.03516c5.39356,1.23047 9.59766,4.53223 12.34571,9.43359l5.37304,-2.27637c-2.46094,-4.57324 -6.04981,-7.99804 -10.5,-10.19238z" fill="#f44336"/><path d="M69.80859,149.72754v-14.62207l-5.37304,2.25586v14.64258z" fill="#e91e63"/><path d="M159.71484,97.125l-4.06054,1.72266c-5.16797,2.87109 -8.28516,7.66992 -8.28516,13.53516c0,1.59961 0.24609,2.99414 0.61523,4.32715l5.41406,-2.27637c-0.18457,-0.69726 -0.28711,-1.41504 -0.28711,-2.21484c0,-6.43945 5.86523,-11.11523 14.35547,-11.11523c4.16308,0 7.69043,1.12793 10.27441,3.05566l5.49609,-2.33789c-3.62988,-3.58886 -9.10547,-5.84473 -15.60644,-5.84473c-2.87109,0 -5.53711,0.41016 -7.91602,1.14844z" fill="#e91e63"/><path d="M87.9375,127.43555l-5.57812,2.35839c0.30762,5.04492 1.37402,9.51563 3.13769,13.30957l5.27051,-2.21484c-1.76367,-3.75293 -2.74805,-8.26465 -2.83008,-13.45312z" fill="#e91e63"/><path d="M131.74219,108.9375l-5.37304,2.27637c1.98926,3.56836 3.1582,8.03906 3.44531,13.16601l5.57813,-2.33789c-0.49219,-4.9834 -1.68164,-9.41309 -3.65039,-13.10449z" fill="#e91e63"/><path d="M134.44922,137.07422c0.75879,-3.1582 1.27149,-6.5625 1.27149,-10.29492c0,-1.66114 -0.18457,-3.19922 -0.32812,-4.75781l-5.57812,2.35839c0.04101,0.79981 0.16406,1.55859 0.16406,2.39942c0,5.08594 -0.94336,9.49511 -2.52246,13.24804z" fill="#9c27b0"/><path d="M90.76758,140.88867l-5.27051,2.21484c2.15332,4.61426 5.29102,8.22363 9.33106,10.70508l6.60352,-2.78906c-4.7168,-1.78418 -8.36719,-5.25 -10.66406,-10.13086z" fill="#9c27b0"/><path d="M69.80859,149.72754l-5.37304,2.27637v4.38867h5.37304z" fill="#9c27b0"/><path d="M153.39844,114.43359l-5.41406,2.27637c1.29199,4.55273 4.79883,7.73144 11.17676,9.92578l8.40821,-3.54785l-1.78418,-0.45117c-7.64941,-1.90723 -11.40234,-4.36816 -12.38672,-8.20312z" fill="#9c27b0"/><path d="M182.27344,111.68555h5.66016c-0.2666,-3.83496 -1.98926,-7.21875 -4.69629,-9.86426l-5.49609,2.31739c2.48144,1.8457 4.10156,4.45019 4.53223,7.54688z" fill="#9c27b0"/><path d="M134.44922,137.07422l-6.99316,2.95313c-3.30176,7.75196 -9.72071,12.38672 -18.47754,12.38672c-2.76856,0 -5.25,-0.5332 -7.54687,-1.39453l-6.60352,2.78906c3.9375,2.39941 8.6543,3.81446 14.15039,3.81446c13.35058,0 22.37402,-7.79297 25.4707,-20.54883z" fill="#3f51b5"/><path d="M151.34766,141.01172h-5.66016c0.14356,1.92774 0.67676,3.69141 1.39453,5.35254l5.18848,-2.19433c-0.45117,-0.98437 -0.7998,-2.03027 -0.92285,-3.15821z" fill="#3f51b5"/><path d="M171.65039,124.11328l-4.10156,-1.02539l-8.3877,3.54785c1.23047,0.43066 2.56348,0.82031 3.99902,1.16894l6.76758,1.72266c3.75293,0.92285 6.60351,2.0918 8.71582,3.52734l6.31641,-2.68652c-2.76856,-2.70703 -7.09571,-4.71679 -13.30957,-6.25488z" fill="#3f51b5"/><path d="M152.27051,144.19043l-5.18848,2.19434c1.96875,4.55273 5.96777,8.01855 11.36133,9.82324l8.87988,-3.75293c-7.23926,-0.16406 -12.89941,-3.38379 -15.05274,-8.26465z" fill="#03a9f4"/><path d="M188.54883,143.49316c0.18457,-1.00488 0.32813,-2.05078 0.32813,-3.13769c0,-4.12207 -1.23047,-7.36231 -3.91699,-9.98731l-6.31641,2.68652c3.03516,2.03027 4.49121,4.63477 4.49121,7.91602c0,2.07129 -0.67676,3.9375 -1.8252,5.57813z" fill="#03a9f4"/><path d="M188.54883,143.49316l-7.23926,3.05567c-2.48144,3.58886 -7.32129,5.94726 -13.3916,5.94726c-0.20508,0 -0.38965,-0.02051 -0.59473,-0.04101l-8.87988,3.75293c2.70703,0.90234 5.70117,1.41504 8.98242,1.41504c11.58691,0 19.54394,-5.55762 21.12305,-14.12989z" fill="#009688"/></g></g></g></svg>
