<?xml version="1.0"?>
<svg xmlns="http://www.w3.org/2000/svg" viewBox="0 0 50 50" fill="#ffffff" width="50px" height="50px">
    <path d="M48.89,7.6c-0.12-0.23-0.34-0.41-0.59-0.49l-2.06-0.65c-0.49-0.15-1.02,0.14-1.22,0.61c0,0-0.04,0.01-0.14,0.01 c-0.34,0-0.91-0.66-1.17-1.13c-0.08-0.15-0.2-0.27-0.34-0.37C42.14,4.81,38.83,3,34.58,3c-5.31,0-8.83,1.52-8.98,1.58 c-0.43,0.19-0.68,0.66-0.58,1.13C25.12,6.17,25.53,6.5,26,6.5c4.22,0,5.45,0.68,6.85,1.72c0.26,0.19,0.58,0.5,0.86,0.91L1.86,14.04 l5.01,33.11l16.18-2.58c0.06,0.24,0.14,0.49,0.25,0.72c0.42,0.89,1.21,1.57,2.16,1.87l2,0.61c0.48,0.15,0.95,0.22,1.4,0.22 c0.57,0,1.1-0.12,1.56-0.38c0.72-0.39,1.23-1.08,1.46-1.95c0.02-0.04,0.32-1.06,0.78-2.62l14.48-2.31l-4.51-28.51 c0.07-0.03,0.14-0.06,0.2-0.06h0.01c0.29,0,0.38,0.05,0.38,0.05c0.05,0.04,0.09,0.07,0.12,0.1c-0.01,0.44,0.27,0.84,0.7,0.98 l2.06,0.66c0.52,0.16,1.09-0.13,1.26-0.65l1.59-4.93C49.03,8.12,49.01,7.84,48.89,7.6z M22.92,17.06l0.85-0.71 c0.48-0.4,1.18-0.34,1.59,0.12l4.05,4.65l2.4,2.65l-1.5,3.34l-7.52-8.52C22.39,18.14,22.45,17.45,22.92,17.06z M19.66,20.11 c0.24-0.56,0.89-0.83,1.46-0.6l1.05,0.41c0.57,0.23,0.84,0.86,0.61,1.42l-0.61,1.47l-3.11-1.24L19.66,20.11z M10.6,27.47l5.09-0.79 l-1.48,3.54l-3.1,0.48L10.6,27.47z M16.79,35.43l-3.47,4.04l0.49-5.25l0.03-0.19l0.18,0.06l2.89,1.16 C16.88,35.31,16.85,35.38,16.79,35.43z M14.25,33.01l4.38-10.44l3.11,1.25l-4.39,10.42L14.25,33.01z M20.67,29.23l1.5-3.54 l4.64-0.71l2.56,2.92L20.67,29.23z M37.65,34.24c0,0-0.41-1.24-2.56-1.9c-0.1-0.03-0.2-0.06-0.29-0.1l1.2-3.83 c0.74,0.34,2.2,1.26,2.2,3.32C38.2,33.49,37.65,34.24,37.65,34.24z M36.5,26.75l1.01-3.47l0.06-0.01l0.54,3.23L36.5,26.75z M45.76,11.74l-0.49-0.16c-0.19-0.47-0.58-0.77-0.85-0.97c-0.39-0.29-0.89-0.44-1.54-0.45h-0.05c-2.86,0-4.23,4.95-6.5,13.11 c-0.36,1.26-0.72,2.59-1.12,3.95c-1.47,5.13-5.21,17.74-5.25,17.89c-0.1,0.37-0.27,0.62-0.5,0.75c-0.33,0.18-0.83,0.18-1.42,0 l-1.99-0.61c-0.42-0.13-0.76-0.43-0.95-0.83c-0.19-0.39-0.2-0.84-0.05-1.23c0,0,4.62-11.4,6.53-16.13 c2.05-5.12,4.46-11.44,4.88-14.85c0.29-2.41-1-4.55-2.42-5.59c-0.81-0.61-1.59-1.08-2.58-1.43C32.4,5.08,33.45,5,34.58,5 c3.58,0,6.46,1.51,7.51,2.15c0.37,0.59,1.37,1.93,2.79,1.93c0.45,0,0.99-0.1,1.43-0.5l0.43,0.13L45.76,11.74z" fill="#ffffff"/>
</svg>
