<?xml version="1.0"?>
<svg xmlns="http://www.w3.org/2000/svg" xmlns:xlink="http://www.w3.org/1999/xlink" version="1.1" viewBox="0 0 252 252" width="50px" height="50px"><g fill="none" fill-rule="nonzero" stroke="none" stroke-width="1" stroke-linecap="butt" stroke-linejoin="miter" stroke-miterlimit="10" stroke-dasharray="" stroke-dashoffset="0" font-family="none" font-weight="none" font-size="none" text-anchor="none" style="mix-blend-mode: normal"><path d="M0,252v-252h252v252z" fill="none"/><g id="Layer_1"><path d="M220.5,90.825c0,107.625 -94.5,140.175 -94.5,140.175c0,0 -94.5,-32.55 -94.5,-140.175c0,-13.125 1.05,-24.15 2.1,-33.075c1.575,-13.125 10.5,-23.625 23.1,-26.775c16.275,-4.725 42,-9.975 69.3,-9.975c27.3,0 53.025,5.25 69.825,9.975c12.6,3.15 21.525,14.175 23.1,26.775c0.525,8.925 1.575,20.475 1.575,33.075z" fill="#333333"/><path d="M126,36.75c25.725,0 49.875,5.25 65.625,9.45c6.3,1.575 10.5,6.825 11.55,13.65c1.05,9.975 1.575,20.475 1.575,30.975c0,81.9 -60.375,114.975 -78.75,122.85c-18.375,-8.4 -78.75,-41.475 -78.75,-122.85c0,-10.5 0.525,-21 1.575,-30.975c0.525,-6.825 5.25,-12.075 11.55,-13.65c15.75,-4.2 39.9,-9.45 65.625,-9.45M126,21c-27.3,0 -53.025,5.25 -69.825,9.975c-12.075,3.15 -21.525,14.175 -22.575,26.775c-1.05,8.925 -2.1,20.475 -2.1,33.075c0,107.625 94.5,140.175 94.5,140.175c0,0 94.5,-32.55 94.5,-140.175c0,-13.125 -1.05,-24.15 -2.1,-33.075c-1.575,-13.125 -10.5,-23.625 -23.1,-26.775c-16.275,-4.725 -42,-9.975 -69.3,-9.975z" fill="#ffffff"/><rect x="23" y="28" transform="scale(5.25,5.25)" width="2" height="8" fill="#cccccc"/><path d="M126,52.5c0,0 -31.5,26.25 -31.5,68.25c0,27.3 17.325,44.625 26.25,52.5l5.25,-15.75l5.25,15.75c8.925,-7.875 26.25,-25.2 26.25,-52.5c0,-42 -31.5,-68.25 -31.5,-68.25z" fill="#ffffff"/><path d="M126,52.5c0,0 -31.5,26.25 -31.5,68.25c0,27.3 17.325,44.625 26.25,52.5l5.25,-15.75z" fill="#cccccc"/></g></g></svg>
