<?xml version="1.0"?>
<svg xmlns="http://www.w3.org/2000/svg" xmlns:xlink="http://www.w3.org/1999/xlink" version="1.1" viewBox="0 0 252 252" width="50px" height="50px"><g fill="none" fill-rule="nonzero" stroke="none" stroke-width="1" stroke-linecap="butt" stroke-linejoin="miter" stroke-miterlimit="10" stroke-dasharray="" stroke-dashoffset="0" font-family="none" font-weight="none" font-size="none" text-anchor="none" style="mix-blend-mode: normal"><path d="M0,252v-252h252v252z" fill="none"/><g><g id="surface1"><path d="M90.31641,100.38574l-25.75781,14.25293c-0.96387,0.5332 -1.55859,1.51758 -1.55859,2.58398v28.52637c0,1.06641 0.59473,2.05078 1.55859,2.58398l25.75781,14.27344c0.96387,0.5127 2.15332,0.5127 3.11719,0l25.75781,-14.27344c0.96387,-0.5332 1.55859,-1.51758 1.55859,-2.58398v-28.52637c0,-1.06641 -0.59473,-2.05078 -1.55859,-2.58398l-25.75781,-14.25293c-0.49219,-0.2666 -1.02539,-0.38965 -1.55859,-0.38965c-0.5332,0 -1.06641,0.12305 -1.55859,0.38965" fill="#cccccc"/><path d="M222.8584,126.06152l-4.28613,2.37891c-0.16406,0.08203 -0.24609,0.24609 -0.24609,0.43066v4.75781c0,0.18457 0.08203,0.34863 0.24609,0.43066l4.28613,2.37891c0.16406,0.08203 0.36914,0.08203 0.5332,0l4.28614,-2.37891c0.16406,-0.08203 0.2666,-0.24609 0.2666,-0.43066v-4.75781c0,-0.18457 -0.10254,-0.34863 -0.2666,-0.43066l-4.28614,-2.37891c-0.08203,-0.04102 -0.18457,-0.06152 -0.2666,-0.06152c-0.08203,0 -0.18457,0.02051 -0.2666,0.06152" fill="#cccccc"/><path d="M187.6875,70.15723l-12.53027,-6.99316c-0.41016,-0.22559 -0.88183,-0.22559 -1.27148,0.02051c-0.38965,0.22559 -0.63574,0.63574 -0.63574,1.08692v42.28711l-11.56641,-6.41894c-0.49219,-0.2666 -1.02539,-0.38965 -1.55859,-0.38965c-0.5332,0 -1.06641,0.12305 -1.55859,0.38965l-25.75781,14.25293c-0.96387,0.5332 -1.55859,1.51758 -1.55859,2.58398v28.52637c0,1.06641 0.59473,2.05078 1.55859,2.58398l25.75781,14.27344c0.96387,0.5127 2.15332,0.5127 3.11719,0l25.75781,-14.27344c0.96387,-0.5332 1.55859,-1.51758 1.55859,-2.58398v-73.11035c0,-0.92286 -0.51269,-1.78418 -1.3125,-2.23536zM172.55274,138.89941l-11.70996,6.48047c-0.43066,0.24609 -0.98437,0.24609 -1.41504,0l-11.70996,-6.48047c-0.45117,-0.24609 -0.71777,-0.69726 -0.71777,-1.16894v-12.96094c0,-0.49219 0.2666,-0.94336 0.71777,-1.18945l11.70996,-6.48047h-0.02051c0.22559,-0.12305 0.47168,-0.16406 0.71777,-0.16406c0.24609,0 0.49219,0.06152 0.71777,0.16406l11.68945,6.48047c0.45117,0.24609 0.71777,0.69726 0.71777,1.18945v12.96094c0,0.47168 -0.2666,0.92285 -0.69726,1.16894z" fill="#ffffff"/><path d="M90.31641,100.38574l-27.31641,45.36328c0,1.06641 0.59473,2.05078 1.55859,2.58398l25.75781,14.27344c0.96387,0.5127 2.15332,0.5127 3.11719,0l27.31641,-45.38379c0,-1.06641 -0.59473,-2.05078 -1.55859,-2.58398l-25.75781,-14.25293c-0.49219,-0.2666 -1.02539,-0.38965 -1.55859,-0.38965c-0.5332,0 -1.06641,0.12305 -1.55859,0.38965" fill="#666666"/><path d="M90.31641,100.38574l-25.75781,14.25293c-0.96387,0.5332 -1.55859,1.51758 -1.55859,2.58398l27.31641,45.38379c0.96387,0.5127 2.15332,0.5127 3.11719,0l25.75781,-14.27344c0.96387,-0.5332 1.55859,-1.51758 1.55859,-2.58398l-27.31641,-45.36328c-0.49219,-0.2666 -1.02539,-0.38965 -1.55859,-0.38965c-0.5332,0 -1.06641,0.12305 -1.55859,0.38965" fill="#ffffff"/><path d="M250.44141,114.39258l-25.75781,-14.25293c-0.49219,-0.2666 -1.02539,-0.38965 -1.55859,-0.38965c-0.5332,0 -1.06641,0.12305 -1.55859,0.38965l-25.75781,14.25293c-0.96387,0.5332 -1.55859,1.55859 -1.55859,2.64551v28.40332c0,1.10742 0.59473,2.11231 1.55859,2.64551l25.75781,14.27344c0.98438,0.53321 2.15332,0.53321 3.11719,0l11.89453,-6.58301c1.08691,-0.59473 1.06641,-2.15332 -0.02051,-2.76856l-25.83984,-14.08886c-0.45117,-0.26661 -0.71777,-0.71777 -0.71777,-1.20996v-12.94043c0,-0.49219 0.2666,-0.92285 0.67676,-1.16894l11.73047,-6.48047c0.22559,-0.12305 0.47168,-0.18457 0.71777,-0.18457c0.24609,0 0.49219,0.06152 0.69727,0.18457l11.73047,6.50098c0.43066,0.22559 0.69726,0.67676 0.69726,1.14844v10.56152c0,0.45117 0.24609,0.88184 0.63574,1.10742c0.38965,0.20508 0.86133,0.20508 1.27148,-0.02051l12.5918,-7.30078c0.75879,-0.45117 1.25098,-1.29199 1.25098,-2.19434v-9.86426c0,-1.10742 -0.59473,-2.13281 -1.55859,-2.66601z" fill="#ffffff"/><path d="M56.19141,114.39258l-25.75781,-14.25293c-0.49219,-0.2666 -1.02539,-0.38965 -1.55859,-0.38965c-0.5332,0 -1.06641,0.12305 -1.55859,0.38965l-25.75781,14.25293c-0.96387,0.5332 -1.55859,1.55859 -1.55859,2.64551v39.19043c0,0.45117 0.24609,0.88183 0.63574,1.10742c0.38965,0.22559 0.88184,0.22559 1.27148,0l12.5918,-7.32129c0.77929,-0.45117 1.25098,-1.29199 1.25098,-2.19434v-23.05078c0,-0.49219 0.2666,-0.94336 0.67676,-1.16894l11.73047,-6.48047c0.22559,-0.12305 0.47168,-0.18457 0.71777,-0.18457c0.24609,0 0.49219,0.06152 0.71777,0.18457l11.73047,6.48047c0.41016,0.24609 0.67676,0.67676 0.67676,1.16894v23.05078c0,0.90234 0.47168,1.74316 1.25098,2.19434l12.5918,7.32129c0.41016,0.22559 0.88184,0.22559 1.27148,0c0.38965,-0.22559 0.63574,-0.65625 0.63574,-1.10742v-39.16992c0,-1.10742 -0.59473,-2.13281 -1.55859,-2.66601z" fill="#ffffff"/></g></g></g></svg>
